<svg id="kity_svg_6" xmlns="http://www.w3.org/2000/svg" xmlns:xlink="http://www.w3.org/1999/xlink" version="1.1" width="2548" height="1658" style="background: rgb(251, 251, 251); visibility: visible;" viewBox="0 0 2548 1658"><defs id="kity_defs_7"><linearGradient id="kity_linearGradient_17" x1="0" y1="0" x2="0" y2="1"><stop id="kity_stop_18" offset="0" stop-color="rgb(255, 255, 255)"></stop><stop id="kity_stop_19" offset="1" stop-color="rgb(204, 204, 204)"></stop></linearGradient><marker id="kity_marker_2" orient="auto" refX="6" refY="0" viewBox="-7 -7 14 14" markerWidth="7" markerHeight="7" markerUnits="userSpaceOnUse"><path id="kity_path_3" fill="rgb(115, 161, 191)" stroke="none" d="M6,0A6,6,0,1,1,-6,0A6,6,0,1,1,6,0"></path></marker></defs><g id="kity_g_8"><g id="minder1" text-rendering="geometricPrecision"><g id="minder_connect_group1"><path id="kity_path_31" fill="none" stroke="rgb(115, 161, 191)" stroke-width="1" d="M196.5000200377571,1193.4999936368722h355L601.5000200377572,1143.4999936368722"></path><path id="kity_path_33" fill="none" stroke="rgb(115, 161, 191)" stroke-width="1" d="M648.8680200377571,1117.4999936368722L1734.5000200377572,31.499993636872205"></path><path id="kity_path_35" fill="none" stroke="rgb(115, 161, 191)" stroke-width="1" d="M648.8680200377571,1117.4999936368722L1058.5000200377572,707.4999936368722"></path><path id="kity_path_37" fill="none" stroke="rgb(115, 161, 191)" stroke-width="1" d="M1078.5000200377572,718.4999936368722V967.4999936368722L1098.5000200377572,967.4999936368722"></path><path id="kity_path_39" fill="none" stroke="rgb(115, 161, 191)" stroke-width="1" d="M1078.5000200377572,718.4999936368722V759.4999936368722L1098.5000200377572,759.4999936368722"></path><path id="kity_path_41" fill="none" stroke="rgb(115, 161, 191)" stroke-width="1" d="M405.2600200377571,1269.4999936368722L555.5000200377572,1419.4999936368722"></path><path id="kity_path_43" fill="none" stroke="rgb(115, 161, 191)" stroke-width="1" d="M196.5000200377571,1193.4999936368722h90L336.5000200377571,1243.4999936368722"></path><path id="kity_path_49" fill="none" stroke="rgb(115, 161, 191)" stroke-width="1" d="M196.5000200377571,1193.4999936368722h1945L2191.500020037757,1143.4999936368722"></path><path id="kity_path_51" fill="none" stroke="rgb(115, 161, 191)" stroke-width="1" d="M196.5000200377571,1193.4999936368722h1339L1585.5000200377572,1243.4999936368722"></path><path id="kity_path_119" fill="none" stroke="rgb(115, 161, 191)" stroke-width="1" d="M196.5000200377571,1193.4999936368722h633L879.5000200377572,1243.4999936368722"></path><path id="kity_path_127" fill="none" stroke="rgb(115, 161, 191)" stroke-width="1" d="M1118.5000200377572,770.4999936368722V811.4999936368722L1138.5000200377572,811.4999936368722"></path><path id="kity_path_135" fill="none" stroke="rgb(115, 161, 191)" stroke-width="1" d="M1118.5000200377572,770.4999936368722V863.4999936368722L1138.5000200377572,863.4999936368722"></path><path id="kity_path_143" fill="none" stroke="rgb(115, 161, 191)" stroke-width="1" d="M1754.5000200377572,42.499993636872205V83.4999936368722L1774.5000200377572,83.4999936368722"></path><path id="kity_path_151" fill="none" stroke="rgb(115, 161, 191)" stroke-width="1" d="M1834.5000200377572,644.4999936368722V447.4999936368722L1854.5000200377572,447.4999936368722"></path><path id="kity_path_159" fill="none" stroke="rgb(115, 161, 191)" stroke-width="1" d="M937.564020037757,1269.4999936368722L1243.5000200377572,1575.4999936368722"></path><path id="kity_path_167" fill="none" stroke="rgb(115, 161, 191)" stroke-width="1" d="M1263.5000200377572,1564.4999936368722V1315.4999936368722L1283.5000200377572,1315.4999936368722"></path><path id="kity_path_175" fill="none" stroke="rgb(115, 161, 191)" stroke-width="1" d="M1263.5000200377572,1564.4999936368722V1367.4999936368722L1283.5000200377572,1367.4999936368722"></path><path id="kity_path_191" fill="none" stroke="rgb(115, 161, 191)" stroke-width="1" d="M1263.5000200377572,1564.4999936368722V1523.4999936368722L1283.5000200377572,1523.4999936368722"></path><path id="kity_path_230" fill="none" stroke="rgb(115, 161, 191)" stroke-width="1" d="M1303.5000200377572,1512.4999936368722V1419.4999936368722L1323.5000200377572,1419.4999936368722"></path><path id="kity_path_231" fill="none" stroke="rgb(115, 161, 191)" stroke-width="1" d="M1303.5000200377572,1512.4999936368722V1471.4999936368722L1323.5000200377572,1471.4999936368722"></path><path id="kity_path_233" fill="none" stroke="rgb(115, 161, 191)" stroke-width="1" d="M937.564020037757,1269.4999936368722L1295.5000200377572,1627.4999936368722"></path><path id="kity_path_241" fill="none" stroke="rgb(115, 161, 191)" stroke-width="1" d="M1794.5000200377572,94.4999936368722V291.4999936368722L1814.5000200377572,291.4999936368722"></path><path id="kity_path_249" fill="none" stroke="rgb(115, 161, 191)" stroke-width="1" d="M1794.5000200377572,94.4999936368722V655.4999936368722L1814.5000200377572,655.4999936368722"></path><path id="kity_path_257" fill="none" stroke="rgb(115, 161, 191)" stroke-width="1" d="M1834.5000200377572,644.4999936368722V551.4999936368722L1854.5000200377572,551.4999936368722"></path><path id="kity_path_273" fill="none" stroke="rgb(115, 161, 191)" stroke-width="1" d="M1118.5000200377572,978.4999936368722V1019.4999936368722L1138.5000200377572,1019.4999936368722"></path><path id="kity_path_281" fill="none" stroke="rgb(115, 161, 191)" stroke-width="1" d="M1118.5000200377572,978.4999936368722V1071.4999936368722L1138.5000200377572,1071.4999936368722"></path><path id="kity_path_289" fill="none" stroke="rgb(115, 161, 191)" stroke-width="1" d="M1834.5000200377572,644.4999936368722V603.4999936368722L1854.5000200377572,603.4999936368722"></path><path id="kity_path_297" fill="none" stroke="rgb(115, 161, 191)" stroke-width="1" d="M1834.5000200377572,280.4999936368722V187.4999936368722L1854.5000200377572,187.4999936368722"></path><path id="kity_path_305" fill="none" stroke="rgb(115, 161, 191)" stroke-width="1" d="M1834.5000200377572,280.4999936368722V239.4999936368722L1854.5000200377572,239.4999936368722"></path><path id="kity_path_313" fill="none" stroke="rgb(115, 161, 191)" stroke-width="1" d="M405.2600200377571,1269.4999936368722L503.5000200377571,1367.4999936368722"></path><path id="kity_path_329" fill="none" stroke="rgb(115, 161, 191)" stroke-width="1" d="M1834.5000200377572,280.4999936368722V135.4999936368722L1854.5000200377572,135.4999936368722"></path><path id="kity_path_337" fill="none" stroke="rgb(115, 161, 191)" stroke-width="1" d="M1834.5000200377572,644.4999936368722V499.4999936368722L1854.5000200377572,499.4999936368722"></path><path id="kity_path_345" fill="none" stroke="rgb(115, 161, 191)" stroke-width="1" d="M405.2600200377571,1269.4999936368722L451.5000200377571,1315.4999936368722"></path><path id="kity_path_353" fill="none" stroke="rgb(115, 161, 191)" stroke-width="1" d="M1118.5000200377572,770.4999936368722V915.4999936368722L1138.5000200377572,915.4999936368722"></path><path id="kity_path_361" fill="none" stroke="rgb(115, 161, 191)" stroke-width="1" d="M196.5000200377571,1193.4999936368722h70L316.5000200377571,1143.4999936368722"></path><path id="kity_path_369" fill="none" stroke="rgb(115, 161, 191)" stroke-width="1" d="M2217.4760200377573,1117.4999936368722L2263.500020037757,1071.4999936368722"></path><path id="kity_path_385" fill="none" stroke="rgb(115, 161, 191)" stroke-width="1" d="M363.8680200377571,1117.4999936368722L409.5000200377571,1071.4999936368722"></path><path id="kity_path_393" fill="none" stroke="rgb(115, 161, 191)" stroke-width="1" d="M1834.5000200377572,644.4999936368722V343.4999936368722L1854.5000200377572,343.4999936368722"></path><path id="kity_path_409" fill="none" stroke="rgb(115, 161, 191)" stroke-width="1" d="M1834.5000200377572,644.4999936368722V395.4999936368722L1854.5000200377572,395.4999936368722"></path></g><g id="minder_node1"><path id="node_outline1" fill="rgb(115, 161, 191)" stroke="rgb(115, 161, 191)" d="M25.50002003775711,1173.4999936368722h166a5,5,0,0,1,5,5v30a5,5,0,0,1,-5,5h-166a5,5,0,0,1,-5,-5v-30a5,5,0,0,1,5,-5z" stroke-width="3"></path><g id="node_text1" fill="white"><text id="kity_text_22" text-rendering="inherit" font-size="16" dy=".8em" y="1185.4999936368722" x="44.50002003775711">产品销量达成目标</text></g></g><g id="kity_g_14" display="none"><path id="kity_path_15" fill="rgba(0, 92, 153, 0.5)" stroke="none" d="M531.5000200377572,1329.4999936368722h152v15h-152z"></path><path id="kity_path_16" fill="none" stroke="rgb(0, 76, 128)" d="M531.5000200377572,1329.4999936368722L683.5000200377572,1329.4999936368722" stroke-width="1"></path></g><g id="minder_node2"><g id="node_expander6" style="cursor: pointer;"><path id="kity_path_101" fill="white" stroke="gray" d="M602.550285474206,1148.4497396074273A6,6,0,1,1,590.550285474206,1148.4497396074273A6,6,0,1,1,602.550285474206,1148.4497396074273"></path><path id="kity_path_102" fill="none" stroke="gray" d="M592.050285474206,1148.4497396074273L601.050285474206,1148.4497396074273"></path></g><path id="node_outline7" fill="rgb(238, 243, 246)" stroke="rgb(115, 161, 191)" d="M604.5000322659805,1117.4999923017283h118a3,3,0,0,1,3,3v20a3,3,0,0,1,-3,3h-118a3,3,0,0,1,-3,-3v-20a3,3,0,0,1,3,-3z" stroke-width="1"></path><g id="node_text7" fill="black"><text id="kity_text_63" text-rendering="inherit" font-size="14" dy=".8em" y="1123.4999923017283" x="621.5000322659805">更高的性价比</text></g></g><g id="minder_node3"><g id="node_expander1" style="cursor: pointer;"><path id="kity_path_86" fill="white" stroke="gray" d="M1734.5000557263675,31.499969010883646A6,6,0,1,1,1722.5000557263675,31.499969010883646A6,6,0,1,1,1734.5000557263675,31.499969010883646"></path><path id="kity_path_87" fill="none" stroke="gray" d="M1724.0000557263675,31.499969010883646L1733.0000557263675,31.499969010883646"></path></g><path id="node_outline2" fill="none" stroke="none" d="M1739.5000560654516,20.49996901088366h70a5,5,0,0,1,5,5v12a5,5,0,0,1,-5,5h-70a5,5,0,0,1,-5,-5v-12a5,5,0,0,1,5,-5z" stroke-width="3"></path><g id="node_text2" fill="black"><text id="kity_text_53" text-rendering="inherit" font-size="12" dy=".8em" y="25.499969010883646" x="1744.5000560654516">更低的成本</text></g></g><g id="minder_node4"><g id="node_expander5" style="cursor: pointer;"><path id="kity_path_98" fill="white" stroke="gray" d="M1058.5000414000606,707.4999833371901A6,6,0,1,1,1046.5000414000606,707.4999833371901A6,6,0,1,1,1058.5000414000606,707.4999833371901"></path><path id="kity_path_99" fill="none" stroke="gray" d="M1048.0000414000606,707.4999833371901L1057.0000414000606,707.4999833371901"></path></g><path id="node_outline6" fill="none" stroke="none" d="M1063.5000417391448,696.4999833371901h106a5,5,0,0,1,5,5v12a5,5,0,0,1,-5,5h-106a5,5,0,0,1,-5,-5v-12a5,5,0,0,1,5,-5z" stroke-width="3"></path><g id="node_text6" fill="black"><text id="kity_text_61" text-rendering="inherit" font-size="12" dy=".8em" y="701.4999833371901" x="1068.5000417391448">产品生命周期更长</text></g></g><g id="minder_node5"><g id="node_expander2" style="cursor: pointer;"><path id="kity_path_89" fill="white" stroke="gray" d="M1098.500042247771,967.4999888473081A6,6,0,1,1,1086.500042247771,967.4999888473081A6,6,0,1,1,1098.500042247771,967.4999888473081"></path><path id="kity_path_90" fill="none" stroke="gray" d="M1088.000042247771,967.4999888473081L1097.000042247771,967.4999888473081"></path></g><path id="node_outline3" fill="none" stroke="none" d="M1103.5000425868552,956.4999888473081h154a5,5,0,0,1,5,5v12a5,5,0,0,1,-5,5h-154a5,5,0,0,1,-5,-5v-12a5,5,0,0,1,5,-5z" stroke-width="3"></path><g id="node_text3" fill="black"><text id="kity_text_55" text-rendering="inherit" font-size="12" dy=".8em" y="961.4999888473081" x="1108.5000425868552">硬件配置不过时（下一代）</text></g></g><g id="minder_node6"><g id="node_expander3" style="cursor: pointer;"><path id="kity_path_92" fill="white" stroke="gray" d="M1098.500042247771,759.4999844392137A6,6,0,1,1,1086.500042247771,759.4999844392137A6,6,0,1,1,1098.500042247771,759.4999844392137"></path><path id="kity_path_93" fill="none" stroke="gray" d="M1088.000042247771,759.4999844392137L1097.000042247771,759.4999844392137"></path></g><path id="node_outline4" fill="none" stroke="none" d="M1103.5000425868552,748.4999844392137h106a5,5,0,0,1,5,5v12a5,5,0,0,1,-5,5h-106a5,5,0,0,1,-5,-5v-12a5,5,0,0,1,5,-5z" stroke-width="3"></path><g id="node_text4" fill="black"><text id="kity_text_57" text-rendering="inherit" font-size="12" dy=".8em" y="753.4999844392137" x="1108.5000425868552">软件版本持续更新</text></g></g><g id="minder_node7" opacity="1"><g id="node_expander4" style="cursor: pointer;" display="none"><path id="kity_path_95" fill="white" stroke="gray" d="M555.5000307401017,1419.4999984264364A6,6,0,1,1,543.5000307401017,1419.4999984264364A6,6,0,1,1,555.5000307401017,1419.4999984264364"></path><path id="kity_path_96" fill="none" stroke="gray"></path></g><path id="node_outline5" fill="none" stroke="none" d="M560.5000310791859,1408.4999984264364h274a5,5,0,0,1,5,5v12a5,5,0,0,1,-5,5h-274a5,5,0,0,1,-5,-5v-12a5,5,0,0,1,5,-5z" stroke-width="3"></path><g id="node_text5" fill="black"><text id="kity_text_59" text-rendering="inherit" font-size="12" dy=".8em" y="1413.4999984264364" x="565.5000310791859">软件版本持续升级不落后竞品，支持内容持续新增</text></g></g><g id="minder_node8"><g id="node_expander9" style="cursor: pointer;"><path id="kity_path_110" fill="white" stroke="gray" d="M337.5502798581242,1238.550247666317A6,6,0,1,1,325.5502798581242,1238.550247666317A6,6,0,1,1,337.5502798581242,1238.550247666317"></path><path id="kity_path_111" fill="none" stroke="gray" d="M327.0502798581242,1238.550247666317L336.0502798581242,1238.550247666317"></path></g><path id="node_outline10" fill="rgb(238, 243, 246)" stroke="rgb(115, 161, 191)" d="M339.5000266498987,1243.499994972016h174a3,3,0,0,1,3,3v20a3,3,0,0,1,-3,3h-174a3,3,0,0,1,-3,-3v-20a3,3,0,0,1,3,-3z" stroke-width="1"></path><g id="node_text10" fill="black"><text id="kity_text_69" text-rendering="inherit" font-size="14" dy=".8em" y="1249.499994972016" x="356.5000266498987">内容数量更多质量更好</text></g></g><g id="minder_node11"><g id="node_expander10" style="cursor: pointer;"><path id="kity_path_113" fill="white" stroke="gray" d="M2192.5503191706966,1148.4497396074273A6,6,0,1,1,2180.5503191706966,1148.4497396074273A6,6,0,1,1,2192.5503191706966,1148.4497396074273"></path><path id="kity_path_114" fill="none" stroke="gray" d="M2182.0503191706966,1148.4497396074273L2191.0503191706966,1148.4497396074273"></path></g><path id="node_outline11" fill="rgb(238, 243, 246)" stroke="rgb(115, 161, 191)" d="M2194.500065962471,1117.4999923017283h62a3,3,0,0,1,3,3v20a3,3,0,0,1,-3,3h-62a3,3,0,0,1,-3,-3v-20a3,3,0,0,1,3,-3z" stroke-width="1"></path><g id="node_text11" fill="black"><text id="kity_text_71" text-rendering="inherit" font-size="14" dy=".8em" y="1123.4999923017283" x="2211.500065962471">营销</text></g></g><g id="minder_node12"><g id="node_expander11" style="cursor: pointer;" display="none"><path id="kity_path_116" fill="white" stroke="gray" d="M1586.5503063278834,1238.550247666317A6,6,0,1,1,1574.5503063278834,1238.550247666317A6,6,0,1,1,1586.5503063278834,1238.550247666317"></path><path id="kity_path_117" fill="none" stroke="gray"></path></g><path id="node_outline12" fill="rgb(238, 243, 246)" stroke="rgb(115, 161, 191)" d="M1588.5000531196579,1243.499994972016h62a3,3,0,0,1,3,3v20a3,3,0,0,1,-3,3h-62a3,3,0,0,1,-3,-3v-20a3,3,0,0,1,3,-3z" stroke-width="1"></path><g id="node_text12" fill="black"><text id="kity_text_73" text-rendering="inherit" font-size="14" dy=".8em" y="1249.499994972016" x="1605.5000531196579">品牌</text></g></g><g id="minder_node13"><g id="node_expander12" style="cursor: pointer;"><path id="kity_path_124" fill="white" stroke="gray" d="M880.5502913657936,1238.550247666317A6,6,0,1,1,868.5502913657936,1238.550247666317A6,6,0,1,1,880.5502913657936,1238.550247666317"></path><path id="kity_path_125" fill="none" stroke="gray" d="M870.0502913657936,1238.550247666317L879.0502913657936,1238.550247666317"></path></g><path id="node_outline13" fill="rgb(238, 243, 246)" stroke="rgb(115, 161, 191)" d="M882.500038157568,1243.499994972016h146a3,3,0,0,1,3,3v20a3,3,0,0,1,-3,3h-146a3,3,0,0,1,-3,-3v-20a3,3,0,0,1,3,-3z" stroke-width="1"></path><g id="node_text13" fill="black"><text id="kity_text_121" text-rendering="inherit" font-size="14" dy=".8em" y="1249.499994972016" x="899.500038157568">覆盖更广的用户群</text></g></g><g id="minder_node14"><g id="node_expander13" style="cursor: pointer;" display="none"><path id="kity_path_132" fill="white" stroke="gray" d="M1138.5000430954817,811.4999855412373A6,6,0,1,1,1126.5000430954817,811.4999855412373A6,6,0,1,1,1138.5000430954817,811.4999855412373"></path><path id="kity_path_133" fill="none" stroke="gray"></path></g><path id="node_outline14" fill="none" stroke="none" d="M1143.500043434566,800.4999855412373h154a5,5,0,0,1,5,5v12a5,5,0,0,1,-5,5h-154a5,5,0,0,1,-5,-5v-12a5,5,0,0,1,5,-5z" stroke-width="3"></path><g id="node_text14" fill="black"><text id="kity_text_129" text-rendering="inherit" font-size="12" dy=".8em" y="805.4999855412373" x="1148.500043434566">体验持续优化，确保好评率</text></g></g><g id="minder_node15"><g id="node_expander14" style="cursor: pointer;" display="none"><path id="kity_path_140" fill="white" stroke="gray" d="M1138.5000430954817,863.499986643261A6,6,0,1,1,1126.5000430954817,863.499986643261A6,6,0,1,1,1138.5000430954817,863.499986643261"></path><path id="kity_path_141" fill="none" stroke="gray"></path></g><path id="node_outline15" fill="none" stroke="none" d="M1143.500043434566,852.499986643261h82a5,5,0,0,1,5,5v12a5,5,0,0,1,-5,5h-82a5,5,0,0,1,-5,-5v-12a5,5,0,0,1,5,-5z" stroke-width="3"></path><g id="node_text15" fill="black"><text id="kity_text_137" text-rendering="inherit" font-size="12" dy=".8em" y="857.499986643261" x="1148.500043434566">功能持续增加</text></g></g><g id="minder_node16"><g id="node_expander15" style="cursor: pointer;"><path id="kity_path_148" fill="white" stroke="gray" d="M1774.5000565740777,83.49997011290723A6,6,0,1,1,1762.5000565740777,83.49997011290723A6,6,0,1,1,1774.5000565740777,83.49997011290723"></path><path id="kity_path_149" fill="none" stroke="gray" d="M1764.0000565740777,83.49997011290723L1773.0000565740777,83.49997011290723"></path></g><path id="node_outline16" fill="none" stroke="none" d="M1779.5000569131619,72.49997011290725h58a5,5,0,0,1,5,5v12a5,5,0,0,1,-5,5h-58a5,5,0,0,1,-5,-5v-12a5,5,0,0,1,5,-5z" stroke-width="3"></path><g id="node_text16" fill="black"><text id="kity_text_145" text-rendering="inherit" font-size="12" dy=".8em" y="77.49997011290723" x="1784.5000569131619">效率提升</text></g></g><g id="minder_node17" opacity="1"><g id="node_expander16" style="cursor: pointer;" display="none"><path id="kity_path_156" fill="white" stroke="gray" d="M1854.5000582694988,447.49997782707226A6,6,0,1,1,1842.5000582694988,447.49997782707226A6,6,0,1,1,1854.5000582694988,447.49997782707226"></path><path id="kity_path_157" fill="none" stroke="gray"></path></g><path id="node_outline17" fill="none" stroke="none" d="M1859.500058608583,436.49997782707226h142a5,5,0,0,1,5,5v12a5,5,0,0,1,-5,5h-142a5,5,0,0,1,-5,-5v-12a5,5,0,0,1,5,-5z" stroke-width="3"></path><g id="node_text17" fill="black"><text id="kity_text_153" text-rendering="inherit" font-size="12" dy=".8em" y="441.49997782707226" x="1864.500058608583">跨部门跨领域配合效率高</text></g></g><g id="minder_node18"><g id="node_expander17" style="cursor: pointer;"><path id="kity_path_164" fill="white" stroke="gray" d="M1243.5000453207215,1575.500001732507A6,6,0,1,1,1231.5000453207215,1575.500001732507A6,6,0,1,1,1243.5000453207215,1575.500001732507"></path><path id="kity_path_165" fill="none" stroke="gray" d="M1233.0000453207215,1575.500001732507L1242.0000453207215,1575.500001732507"></path></g><path id="node_outline18" fill="none" stroke="none" d="M1248.5000456598057,1564.500001732507h106a5,5,0,0,1,5,5v12a5,5,0,0,1,-5,5h-106a5,5,0,0,1,-5,-5v-12a5,5,0,0,1,5,-5z" stroke-width="3"></path><g id="node_text18" fill="black"><text id="kity_text_161" text-rendering="inherit" font-size="12" dy=".8em" y="1569.500001732507" x="1253.5000456598057">支持更多海外市场</text></g></g><g id="minder_node19"><g id="node_expander18" style="cursor: pointer;" display="none"><path id="kity_path_172" fill="white" stroke="gray" d="M1283.5000461684322,1315.499996222389A6,6,0,1,1,1271.5000461684322,1315.499996222389A6,6,0,1,1,1283.5000461684322,1315.499996222389"></path><path id="kity_path_173" fill="none" stroke="gray"></path></g><path id="node_outline19" fill="none" stroke="none" d="M1288.5000465075163,1304.499996222389h142a5,5,0,0,1,5,5v12a5,5,0,0,1,-5,5h-142a5,5,0,0,1,-5,-5v-12a5,5,0,0,1,5,-5z" stroke-width="3"></path><g id="node_text19" fill="black"><text id="kity_text_169" text-rendering="inherit" font-size="12" dy=".8em" y="1309.499996222389" x="1293.5000465075163">系统应用做好本地化翻译</text></g></g><g id="minder_node20"><g id="node_expander19" style="cursor: pointer;" display="none"><path id="kity_path_180" fill="white" stroke="gray" d="M1283.5000461684322,1367.4999973244126A6,6,0,1,1,1271.5000461684322,1367.4999973244126A6,6,0,1,1,1283.5000461684322,1367.4999973244126"></path><path id="kity_path_181" fill="none" stroke="gray"></path></g><path id="node_outline20" fill="none" stroke="none" d="M1288.5000465075163,1356.4999973244126h183a5,5,0,0,1,5,5v12a5,5,0,0,1,-5,5h-183a5,5,0,0,1,-5,-5v-12a5,5,0,0,1,5,-5z" stroke-width="3"></path><g id="node_text20" fill="black"><text id="kity_text_177" text-rendering="inherit" font-size="12" dy=".8em" y="1361.4999973244126" x="1293.5000465075163">系统应用做好当地法规/文化遵从</text></g></g><g id="minder_node22" opacity="1"><g id="node_expander21" style="cursor: pointer;"><path id="kity_path_196" fill="white" stroke="gray" d="M1283.5000461684322,1523.5000006304836A6,6,0,1,1,1271.5000461684322,1523.5000006304836A6,6,0,1,1,1283.5000461684322,1523.5000006304836"></path><path id="kity_path_197" fill="none" stroke="gray" d="M1273.0000461684322,1523.5000006304836L1282.0000461684322,1523.5000006304836"></path></g><path id="node_outline22" fill="none" stroke="none" d="M1288.5000465075163,1512.5000006304836h166a5,5,0,0,1,5,5v12a5,5,0,0,1,-5,5h-166a5,5,0,0,1,-5,-5v-12a5,5,0,0,1,5,-5z" stroke-width="3"></path><g id="node_text22" fill="black"><text id="kity_text_193" text-rendering="inherit" font-size="12" dy=".8em" y="1517.5000006304836" x="1293.5000465075163">开发者平台对海外开发者友好</text></g></g><g id="minder_node24"><g id="node_expander23" style="cursor: pointer;" display="none"><path id="kity_path_212" fill="white" stroke="gray" d="M1323.5000470161424,1419.4999984264364A6,6,0,1,1,1311.5000470161424,1419.4999984264364A6,6,0,1,1,1323.5000470161424,1419.4999984264364"></path><path id="kity_path_213" fill="none" stroke="gray"></path></g><path id="node_outline24" fill="none" stroke="none" d="M1328.5000473552266,1408.4999984264364h130a5,5,0,0,1,5,5v12a5,5,0,0,1,-5,5h-130a5,5,0,0,1,-5,-5v-12a5,5,0,0,1,5,-5z" stroke-width="3"></path><g id="node_text24" fill="black"><text id="kity_text_209" text-rendering="inherit" font-size="12" dy=".8em" y="1413.4999984264364" x="1333.5000473552266">开发者平台支持多语言</text></g></g><g id="minder_node25"><g id="node_expander24" style="cursor: pointer;" display="none"><path id="kity_path_220" fill="white" stroke="gray" d="M1323.5000470161424,1471.4999995284597A6,6,0,1,1,1311.5000470161424,1471.4999995284597A6,6,0,1,1,1323.5000470161424,1471.4999995284597"></path><path id="kity_path_221" fill="none" stroke="gray"></path></g><path id="node_outline25" fill="none" stroke="none" d="M1328.5000473552266,1460.4999995284597h212a5,5,0,0,1,5,5v12a5,5,0,0,1,-5,5h-212a5,5,0,0,1,-5,-5v-12a5,5,0,0,1,5,-5z" stroke-width="3"></path><g id="node_text25" fill="black"><text id="kity_text_217" text-rendering="inherit" font-size="12" dy=".8em" y="1465.4999995284597" x="1333.5000473552266">账号系统/支付系统/对账平台支持海外</text></g></g><g id="minder_node27"><g id="node_expander26" style="cursor: pointer;" display="none"><path id="kity_path_238" fill="white" stroke="gray" d="M1295.500046422745,1627.5000028345307A6,6,0,1,1,1283.500046422745,1627.5000028345307A6,6,0,1,1,1295.500046422745,1627.5000028345307"></path><path id="kity_path_239" fill="none" stroke="gray"></path></g><path id="node_outline27" fill="none" stroke="none" d="M1300.5000467618293,1616.5000028345307h106a5,5,0,0,1,5,5v12a5,5,0,0,1,-5,5h-106a5,5,0,0,1,-5,-5v-12a5,5,0,0,1,5,-5z" stroke-width="3"></path><g id="node_text27" fill="black"><text id="kity_text_235" text-rendering="inherit" font-size="12" dy=".8em" y="1621.5000028345307" x="1305.5000467618293">覆盖更广的年龄层</text></g></g><g id="minder_node28"><g id="node_expander27" style="cursor: pointer;"><path id="kity_path_246" fill="white" stroke="gray" d="M1814.5000574217881,291.4999745210015A6,6,0,1,1,1802.5000574217881,291.4999745210015A6,6,0,1,1,1814.5000574217881,291.4999745210015"></path><path id="kity_path_247" fill="none" stroke="gray" d="M1804.0000574217881,291.4999745210015L1813.0000574217881,291.4999745210015"></path></g><path id="node_outline28" fill="none" stroke="none" d="M1819.5000577608723,280.4999745210015h82a5,5,0,0,1,5,5v12a5,5,0,0,1,-5,5h-82a5,5,0,0,1,-5,-5v-12a5,5,0,0,1,5,-5z" stroke-width="3"></path><g id="node_text28" fill="black"><text id="kity_text_243" text-rendering="inherit" font-size="12" dy=".8em" y="285.4999745210015" x="1824.5000577608723">员工能力提升</text></g></g><g id="minder_node29"><g id="node_expander28" style="cursor: pointer;"><path id="kity_path_254" fill="white" stroke="gray" d="M1814.5000574217881,655.4999822351666A6,6,0,1,1,1802.5000574217881,655.4999822351666A6,6,0,1,1,1814.5000574217881,655.4999822351666"></path><path id="kity_path_255" fill="none" stroke="gray" d="M1804.0000574217881,655.4999822351666L1813.0000574217881,655.4999822351666"></path></g><path id="node_outline29" fill="none" stroke="none" d="M1819.5000577608723,644.4999822351666h82a5,5,0,0,1,5,5v12a5,5,0,0,1,-5,5h-82a5,5,0,0,1,-5,-5v-12a5,5,0,0,1,5,-5z" stroke-width="3"></path><g id="node_text29" fill="black"><text id="kity_text_251" text-rendering="inherit" font-size="12" dy=".8em" y="649.4999822351666" x="1824.5000577608723">组织效率提升</text></g></g><g id="minder_node30"><g id="node_expander29" style="cursor: pointer;" display="none"><path id="kity_path_262" fill="white" stroke="gray" d="M1854.5000582694988,551.4999800311194A6,6,0,1,1,1842.5000582694988,551.4999800311194A6,6,0,1,1,1854.5000582694988,551.4999800311194"></path><path id="kity_path_263" fill="none" stroke="gray"></path></g><path id="node_outline30" fill="none" stroke="none" d="M1859.500058608583,540.4999800311194h147a5,5,0,0,1,5,5v12a5,5,0,0,1,-5,5h-147a5,5,0,0,1,-5,-5v-12a5,5,0,0,1,5,-5z" stroke-width="3"></path><g id="node_text30" fill="black"><text id="kity_text_259" text-rendering="inherit" font-size="12" dy=".8em" y="545.4999800311194" x="1864.500058608583">关键模块有人员补位/备份</text></g></g><g id="minder_node32"><g id="node_expander31" style="cursor: pointer;" display="none"><path id="kity_path_278" fill="white" stroke="gray" d="M1138.5000430954817,1019.4999899493317A6,6,0,1,1,1126.5000430954817,1019.4999899493317A6,6,0,1,1,1138.5000430954817,1019.4999899493317"></path><path id="kity_path_279" fill="none" stroke="gray"></path></g><path id="node_outline32" fill="none" stroke="none" d="M1143.500043434566,1008.4999899493317h154a5,5,0,0,1,5,5v12a5,5,0,0,1,-5,5h-154a5,5,0,0,1,-5,-5v-12a5,5,0,0,1,5,-5z" stroke-width="3"></path><g id="node_text32" fill="black"><text id="kity_text_275" text-rendering="inherit" font-size="12" dy=".8em" y="1013.4999899493317" x="1148.500043434566">配合新器件预研和导入评估</text></g></g><g id="minder_node33"><g id="node_expander32" style="cursor: pointer;" display="none"><path id="kity_path_286" fill="white" stroke="gray" d="M1138.5000430954817,1071.4999910513552A6,6,0,1,1,1126.5000430954817,1071.4999910513552A6,6,0,1,1,1138.5000430954817,1071.4999910513552"></path><path id="kity_path_287" fill="none" stroke="gray"></path></g><path id="node_outline33" fill="none" stroke="none" d="M1143.500043434566,1060.4999910513552h190a5,5,0,0,1,5,5v12a5,5,0,0,1,-5,5h-190a5,5,0,0,1,-5,-5v-12a5,5,0,0,1,5,-5z" stroke-width="3"></path><g id="node_text33" fill="black"><text id="kity_text_283" text-rendering="inherit" font-size="12" dy=".8em" y="1065.4999910513552" x="1148.500043434566">配合新器件落地的场景和玩法探索</text></g></g><g id="minder_node34"><g id="node_expander33" style="cursor: pointer;" display="none"><path id="kity_path_294" fill="white" stroke="gray" d="M1854.5000582694988,603.499981133143A6,6,0,1,1,1842.5000582694988,603.499981133143A6,6,0,1,1,1854.5000582694988,603.499981133143"></path><path id="kity_path_295" fill="none" stroke="gray"></path></g><path id="node_outline34" fill="none" stroke="none" d="M1859.500058608583,592.499981133143h87a5,5,0,0,1,5,5v12a5,5,0,0,1,-5,5h-87a5,5,0,0,1,-5,-5v-12a5,5,0,0,1,5,-5z" stroke-width="3"></path><g id="node_text34" fill="black"><text id="kity_text_291" text-rendering="inherit" font-size="12" dy=".8em" y="597.499981133143" x="1864.500058608583">会议/汇报合并</text></g></g><g id="minder_node35"><g id="node_expander34" style="cursor: pointer;" display="none"><path id="kity_path_302" fill="white" stroke="gray" d="M1854.5000582694988,187.4999723169542A6,6,0,1,1,1842.5000582694988,187.4999723169542A6,6,0,1,1,1854.5000582694988,187.4999723169542"></path><path id="kity_path_303" fill="none" stroke="gray"></path></g><path id="node_outline35" fill="none" stroke="none" d="M1859.500058608583,176.4999723169542h34a5,5,0,0,1,5,5v12a5,5,0,0,1,-5,5h-34a5,5,0,0,1,-5,-5v-12a5,5,0,0,1,5,-5z" stroke-width="3"></path><g id="node_text35" fill="black"><text id="kity_text_299" text-rendering="inherit" font-size="12" dy=".8em" y="181.4999723169542" x="1864.500058608583">培训</text></g></g><g id="minder_node36"><g id="node_expander35" style="cursor: pointer;" display="none"><path id="kity_path_310" fill="white" stroke="gray" d="M1854.5000582694988,239.4999734189779A6,6,0,1,1,1842.5000582694988,239.4999734189779A6,6,0,1,1,1854.5000582694988,239.4999734189779"></path><path id="kity_path_311" fill="none" stroke="gray"></path></g><path id="node_outline36" fill="none" stroke="none" d="M1859.500058608583,228.4999734189779h106a5,5,0,0,1,5,5v12a5,5,0,0,1,-5,5h-106a5,5,0,0,1,-5,-5v-12a5,5,0,0,1,5,-5z" stroke-width="3"></path><g id="node_text36" fill="black"><text id="kity_text_307" text-rendering="inherit" font-size="12" dy=".8em" y="233.4999734189779" x="1864.500058608583">学习的制度和氛围</text></g></g><g id="minder_node37" opacity="1"><g id="node_expander36" style="cursor: pointer;" display="none"><path id="kity_path_318" fill="white" stroke="gray" d="M503.5000296380781,1367.4999973244126A6,6,0,1,1,491.5000296380781,1367.4999973244126A6,6,0,1,1,503.5000296380781,1367.4999973244126"></path><path id="kity_path_319" fill="none" stroke="gray"></path></g><path id="node_outline37" fill="none" stroke="none" d="M508.5000299771623,1356.4999973244126h315a5,5,0,0,1,5,5v12a5,5,0,0,1,-5,5h-315a5,5,0,0,1,-5,-5v-12a5,5,0,0,1,5,-5z" stroke-width="3"></path><g id="node_text37" fill="black"><text id="kity_text_315" text-rendering="inherit" font-size="12" dy=".8em" y="1361.4999973244126" x="513.5000299771623">ROM系统对三方app兼容性好，竞品的内容能更好地适配</text></g></g><g id="minder_node39"><g id="node_expander38" style="cursor: pointer;" display="none"><path id="kity_path_334" fill="white" stroke="gray" d="M1854.5000582694988,135.49997121493038A6,6,0,1,1,1842.5000582694988,135.49997121493038A6,6,0,1,1,1854.5000582694988,135.49997121493038"></path><path id="kity_path_335" fill="none" stroke="gray"></path></g><path id="node_outline39" fill="none" stroke="none" d="M1859.500058608583,124.49997121493038h154a5,5,0,0,1,5,5v12a5,5,0,0,1,-5,5h-154a5,5,0,0,1,-5,-5v-12a5,5,0,0,1,5,-5z" stroke-width="3"></path><g id="node_text39" fill="black"><text id="kity_text_331" text-rendering="inherit" font-size="12" dy=".8em" y="129.49997121493038" x="1864.500058608583">人员分层级，制定成长计划</text></g></g><g id="minder_node40"><g id="node_expander39" style="cursor: pointer;" display="none"><path id="kity_path_342" fill="white" stroke="gray" d="M1854.5000582694988,499.49997892909585A6,6,0,1,1,1842.5000582694988,499.49997892909585A6,6,0,1,1,1854.5000582694988,499.49997892909585"></path><path id="kity_path_343" fill="none" stroke="gray"></path></g><path id="node_outline40" fill="none" stroke="none" d="M1859.500058608583,488.49997892909585h286a5,5,0,0,1,5,5v12a5,5,0,0,1,-5,5h-286a5,5,0,0,1,-5,-5v-12a5,5,0,0,1,5,-5z" stroke-width="3"></path><g id="node_text40" fill="black"><text id="kity_text_339" text-rendering="inherit" font-size="12" dy=".8em" y="493.49997892909585" x="1864.500058608583">万马奔腾，有计划地把担子从少数几个人肩上分出去</text></g></g><g id="minder_node41" opacity="1"><g id="node_expander40" style="cursor: pointer;" display="none"><path id="kity_path_350" fill="white" stroke="gray" d="M451.50002853605446,1315.499996222389A6,6,0,1,1,439.50002853605446,1315.499996222389A6,6,0,1,1,451.50002853605446,1315.499996222389"></path><path id="kity_path_351" fill="none" stroke="gray"></path></g><path id="node_outline41" fill="none" stroke="none" d="M456.50002887513864,1304.499996222389h236a5,5,0,0,1,5,5v12a5,5,0,0,1,-5,5h-236a5,5,0,0,1,-5,-5v-12a5,5,0,0,1,5,-5z" stroke-width="3"></path><g id="node_text41" fill="black"><text id="kity_text_347" text-rendering="inherit" font-size="12" dy=".8em" y="1309.499996222389" x="461.50002887513864">开发者平台完善，SDK/API/工具对标Meta</text></g></g><g id="kity_g_12" display="none"><path id="kity_path_13" fill="none" stroke="rgb(66, 94, 112)" d="M275.5000200377571,1243.4999936368722h174a3,3,0,0,1,3,3v20a3,3,0,0,1,-3,3h-174a3,3,0,0,1,-3,-3v-20a3,3,0,0,1,3,-3z" stroke-width="5"></path></g><g id="minder_node42"><g id="node_expander41" style="cursor: pointer;" display="none"><path id="kity_path_358" fill="white" stroke="gray" d="M1138.5000430954817,915.4999877452846A6,6,0,1,1,1126.5000430954817,915.4999877452846A6,6,0,1,1,1138.5000430954817,915.4999877452846"></path><path id="kity_path_359" fill="none" stroke="gray"></path></g><path id="node_outline42" fill="none" stroke="none" d="M1143.500043434566,904.4999877452846h286a5,5,0,0,1,5,5v12a5,5,0,0,1,-5,5h-286a5,5,0,0,1,-5,-5v-12a5,5,0,0,1,5,-5z" stroke-width="3"></path><g id="node_text42" fill="black"><text id="kity_text_355" text-rendering="inherit" font-size="12" dy=".8em" y="909.4999877452846" x="1148.500043434566">落地好平台解藕方案，为后续持续OTA升级打下基础</text></g></g><g id="minder_node43"><g id="node_expander42" style="cursor: pointer;"><path id="kity_path_366" fill="white" stroke="gray" d="M317.55027943426893,1148.4497396074273A6,6,0,1,1,305.55027943426893,1148.4497396074273A6,6,0,1,1,317.55027943426893,1148.4497396074273"></path><path id="kity_path_367" fill="none" stroke="gray" d="M307.05027943426893,1148.4497396074273L316.05027943426893,1148.4497396074273"></path></g><path id="node_outline43" fill="rgb(238, 243, 246)" stroke="rgb(115, 161, 191)" d="M319.5000262260434,1117.4999923017283h118a3,3,0,0,1,3,3v20a3,3,0,0,1,-3,3h-118a3,3,0,0,1,-3,-3v-20a3,3,0,0,1,3,-3z" stroke-width="1"></path><g id="node_text43" fill="black"><text id="kity_text_363" text-rendering="inherit" font-size="14" dy=".8em" y="1123.4999923017283" x="336.5000262260434">产品按时上市</text></g></g><g id="minder_node44"><g id="node_expander43" style="cursor: pointer;" display="none"><path id="kity_path_374" fill="white" stroke="gray" d="M2263.500066937338,1071.4999910513552A6,6,0,1,1,2251.500066937338,1071.4999910513552A6,6,0,1,1,2263.500066937338,1071.4999910513552"></path><path id="kity_path_375" fill="none" stroke="gray"></path></g><path id="node_outline44" fill="none" stroke="none" d="M2268.500067276422,1060.4999910513552h255a5,5,0,0,1,5,5v12a5,5,0,0,1,-5,5h-255a5,5,0,0,1,-5,-5v-12a5,5,0,0,1,5,-5z" stroke-width="3"></path><g id="node_text44" fill="black"><text id="kity_text_371" text-rendering="inherit" font-size="12" dy=".8em" y="1065.4999910513552" x="2273.500067276422">MR录制、录屏等利于营销的功能在VR1能上线</text></g></g><g id="minder_node46"><g id="node_expander45" style="cursor: pointer;" display="none"><path id="kity_path_390" fill="white" stroke="gray" d="M409.5000276459585,1071.4999910513552A6,6,0,1,1,397.5000276459585,1071.4999910513552A6,6,0,1,1,409.5000276459585,1071.4999910513552"></path><path id="kity_path_391" fill="none" stroke="gray" d="M399.0000276459585,1071.4999910513552L408.0000276459585,1071.4999910513552"></path></g><path id="node_outline46" fill="none" stroke="none" d="M414.50002798504266,1060.4999910513552h142a5,5,0,0,1,5,5v12a5,5,0,0,1,-5,5h-142a5,5,0,0,1,-5,-5v-12a5,5,0,0,1,5,-5z" stroke-width="3"></path><g id="node_text46" fill="black"><text id="kity_text_387" text-rendering="inherit" font-size="12" dy=".8em" y="1065.4999910513552" x="419.50002798504266">按计划达成软件里程碑点</text></g></g><g id="minder_node47"><g id="node_expander46" style="cursor: pointer;" display="none"><path id="kity_path_398" fill="white" stroke="gray" d="M1854.5000582694988,343.4999756230251A6,6,0,1,1,1842.5000582694988,343.4999756230251A6,6,0,1,1,1854.5000582694988,343.4999756230251"></path><path id="kity_path_399" fill="none" stroke="gray"></path></g><path id="node_outline47" fill="none" stroke="none" d="M1859.500058608583,332.4999756230251h154a5,5,0,0,1,5,5v12a5,5,0,0,1,-5,5h-154a5,5,0,0,1,-5,-5v-12a5,5,0,0,1,5,-5z" stroke-width="3"></path><g id="node_text47" fill="black"><text id="kity_text_395" text-rendering="inherit" font-size="12" dy=".8em" y="337.4999756230251" x="1864.500058608583">过程规范性，提升整体效率</text></g></g><g id="minder_node49"><g id="node_expander48" style="cursor: pointer;" display="none"><path id="kity_path_414" fill="white" stroke="gray" d="M1854.5000582694988,395.49997672504867A6,6,0,1,1,1842.5000582694988,395.49997672504867A6,6,0,1,1,1854.5000582694988,395.49997672504867"></path><path id="kity_path_415" fill="none" stroke="gray"></path></g><path id="node_outline49" fill="none" stroke="none" d="M1859.500058608583,384.49997672504867h58a5,5,0,0,1,5,5v12a5,5,0,0,1,-5,5h-58a5,5,0,0,1,-5,-5v-12a5,5,0,0,1,5,-5z" stroke-width="3"></path><g id="node_text49" fill="black"><text id="kity_text_411" text-rendering="inherit" font-size="12" dy=".8em" y="389.49997672504867" x="1864.500058608583">团队氛围</text></g></g></g></g></svg>